<svg width="42" height="42" viewBox="0 0 42 42" fill="none" xmlns="http://www.w3.org/2000/svg">
<path d="M42 42H0V0H36.1667L42 5.83333V42Z" fill="#808692"/>
<path fill-rule="evenodd" clip-rule="evenodd" d="M20.9975 33.599C23.3007 33.6045 25.4153 33.5464 27.4696 33.4215C28.928 33.3329 30.1925 32.8596 31.2284 32.0149C32.186 31.234 32.8454 30.1567 33.1884 28.8127C33.5284 27.4804 33.548 26.0499 33.5669 24.6665C33.5817 23.5835 33.5972 22.3006 33.6004 20.9995C33.5972 19.6982 33.5817 18.4155 33.5669 17.3325C33.548 15.9491 33.5284 14.5186 33.1884 13.1861C32.8454 11.8421 32.186 10.7648 31.2284 9.98388C30.1925 9.13941 28.928 8.66614 27.4696 8.5775C25.4153 8.4524 23.3007 8.39475 21.003 8.39977C18.7003 8.3943 16.5854 8.4524 14.5311 8.5775C13.0727 8.66614 11.8083 9.13941 10.7723 9.98388C9.81481 10.7648 9.15534 11.8421 8.81239 13.1861C8.4724 14.5186 8.4528 15.9489 8.43389 17.3325C8.41908 18.4164 8.40358 19.7 8.40039 21.0022C8.40358 22.2988 8.41908 23.5826 8.43389 24.6665C8.4528 26.0499 8.4724 27.4804 8.81239 28.8127C9.15534 30.1567 9.81481 31.234 10.7723 32.0149C11.8083 32.8594 13.0727 33.3327 14.5311 33.4213C16.5854 33.5464 18.7008 33.6047 20.9975 33.599ZM13.6499 20.9995C13.6499 25.0202 16.9213 28.2912 20.9419 28.2912C24.9628 28.2912 28.2339 25.0202 28.2339 20.9995C28.2339 16.9789 24.9628 13.7079 20.9419 13.7079C16.9213 13.7079 13.6499 16.9789 13.6499 20.9995ZM27.3006 13.1245C27.3006 12.1579 28.0842 11.3745 29.0506 11.3745C30.0173 11.3745 30.8007 12.1579 30.8007 13.1245C30.8007 14.0911 30.0173 14.8745 29.0506 14.8745C28.0842 14.8745 27.3006 14.0911 27.3006 13.1245Z" fill="white"/>
<path d="M20.9419 16.0412C18.2079 16.0412 15.9834 18.2656 15.9834 20.9995C15.9834 23.7334 18.2079 25.9578 20.9419 25.9578C23.6762 25.9578 25.9005 23.7334 25.9005 20.9995C25.9005 18.2656 23.6762 16.0412 20.9419 16.0412Z" fill="white"/>
</svg>
