<svg width="1038" height="498" viewBox="0 0 1038 498" fill="none" xmlns="http://www.w3.org/2000/svg">
<path d="M905.296 363.312H1124L1050.74 436.077H832.037L905.296 363.312Z" fill="#FF8E3D"/>
<path d="M316.321 159.41H425.859L602.253 334.711H705.48L455.92 86.6452H239.975L316.321 159.41Z" fill="#FF8E3D"/>
<path d="M578.269 159.41H687.808L709.641 181.095L637.27 253.019H740.544L761.255 232.409L864.202 334.711H967.429L812.869 181.142L835.356 158.803L1010.91 333.262H1114.14L886.97 107.535L967.71 27.2928H864.435L761.255 129.828L717.87 86.6919H501.924L578.269 159.457V159.41Z" fill="white"/>
<path d="M360.968 243.953L588.134 469.679H691.361L657.513 436.077H796.085L869.298 363.312H584.254L464.149 243.953H360.968Z" fill="#FF8E3D"/>
<path d="M268.26 163.99L103.274 0H0L165.033 163.99H268.26Z" fill="white"/>
<path d="M62.5066 417.757L289.672 191.984H392.947L312.206 272.227L539.372 498H436.098L260.546 323.494L165.734 417.757H62.5066Z" fill="#FF8E3D"/>
</svg>
