<svg width="925" height="410" viewBox="0 0 925 410" fill="none" xmlns="http://www.w3.org/2000/svg">
<path d="M744.291 110.793H924.099L863.868 50.9372H684.06L744.291 110.793Z" fill="#FF8E3D"/>
<path d="M260.063 278.521H350.121L495.143 134.321H580.012L374.836 338.377H197.296L260.063 278.521Z" fill="#FF8E3D"/>
<path d="M475.425 278.521H565.483L583.433 260.683L523.932 201.519H608.839L625.867 218.473L710.505 134.321H795.374L668.301 260.645L686.789 279.021L831.12 135.512H915.988L729.224 321.193L795.604 387.2H710.697L625.867 302.855L590.198 338.339H412.658L475.425 278.482V278.521Z" fill="white"/>
<path d="M296.771 208.977L483.535 23.2966H568.404L540.576 50.9372H654.502L714.695 110.793H480.345L381.601 208.977H296.771Z" fill="#FF8E3D"/>
<path d="M220.55 274.753L84.9065 409.651H-0.000244141L135.682 274.753H220.55Z" fill="white"/>
<path d="M51.3896 66.007L238.154 251.726H323.062L256.681 185.719L443.446 0H358.539L214.208 143.547L136.258 66.007H51.3896Z" fill="#FF8E3D"/>
</svg>
