<svg width="42" height="42" viewBox="0 0 42 42" fill="none" xmlns="http://www.w3.org/2000/svg">
<path d="M42 42H0V0H36.1667L42 5.83333V42Z" fill="#808692"/>
<path d="M6.88164 19.8698L31.2992 11.305C32.4325 10.9326 33.4223 11.5565 33.0551 13.1155L33.0572 13.1136L28.8997 30.9324C28.5916 32.1957 27.7664 32.5028 26.612 31.9077L20.2807 27.6627L17.2269 30.3391C16.8893 30.6463 16.6044 30.9055 15.9501 30.9055L16.3996 25.044L28.1336 15.4002C28.6443 14.9913 28.0196 14.7609 27.3464 15.1679L12.8457 23.4735L6.59462 21.6995C5.23762 21.3078 5.20807 20.465 6.88164 19.8698Z" fill="white"/>
</svg>
