<svg width="61" height="60" viewBox="0 0 61 60" fill="none" xmlns="http://www.w3.org/2000/svg">
<path d="M60.667 60H0.666992V0H52.3337L60.667 8.33333V60Z" fill="#4E525A"/>
<path d="M50.3146 18.5713L38.1835 29.9993L50.3146 41.4274C50.5339 40.9928 50.667 40.5124 50.667 39.9993V19.9993C50.667 19.4862 50.5339 19.0059 50.3146 18.5713Z" fill="white"/>
<path d="M47.1514 16.666H14.1826C13.6414 16.666 13.1348 16.7922 12.6764 17.0001L28.1814 31.627C29.5523 32.9268 31.7817 32.9268 33.1526 31.627L48.6575 17.0001C48.1992 16.7922 47.6925 16.666 47.1514 16.666Z" fill="white"/>
<path d="M11.0193 18.5713C10.8 19.0059 10.667 19.4862 10.667 19.9993V39.9993C10.667 40.5125 10.8 40.9929 11.0193 41.4274L23.1505 29.9993L11.0193 18.5713Z" fill="white"/>
<path d="M36.5264 31.5705L34.8097 33.1982C32.5254 35.364 28.8085 35.364 26.5242 33.1982L24.8076 31.5705L12.6764 42.9986C13.1348 43.2065 13.6414 43.3327 14.1826 43.3327H47.1514C47.6925 43.3327 48.1992 43.2065 48.6575 42.9986L36.5264 31.5705Z" fill="white"/>
</svg>
