<svg width="1205" height="421" viewBox="0 0 1205 421" fill="none" xmlns="http://www.w3.org/2000/svg">
<path d="M1202.5 418.5V378.721H1182.98V41.779H1202.5V2H851.554L826.942 26.8619H377.558L352.946 2H2.5V41.779H22.0163V378.721H2.5V418.5H352.946L377.066 394.135H827.434L851.554 418.5H1202.5Z" fill="#1A1A1A"/>
<path d="M1182.98 41.779H1202.5V379.218H1182.98V41.779Z" fill="white"/>
<path d="M2.5 41.779H22.0163V379.218H2.5V41.779Z" fill="white"/>
<path d="M1182.98 41.779V378.721H1202.5V418.5H851.554L827.434 394.135H377.066L352.946 418.5H2.5V378.721H22.0163V41.779M1182.98 41.779H1202.5M1182.98 41.779V379.218H1202.5V41.779M1202.5 41.779V2H851.554L826.942 26.8619H377.558L352.946 2H2.5V41.779M2.5 41.779H22.0163M2.5 41.779V379.218H22.0163V41.779" stroke="white" stroke-width="4"/>
</svg>
