<svg width="1552" height="702" viewBox="0 0 1552 702" fill="none" xmlns="http://www.w3.org/2000/svg">
<path d="M116 1H173M116 1V59M116 1H58M173 1V59M173 1H231M173 59H116M173 59H231M173 59V118M116 59V118M116 59H58M231 1V59M231 1H288M231 59H288M231 59V118M288 1V59M288 1H346M288 59H346M288 59V118M346 1V59M346 1H403M346 59H403M346 59V118M403 1V59M403 1H460M403 59H460M403 59V118M460 1V59M460 1H518M460 59H518M460 59V118M518 1V59M518 1H575M518 59H575M518 59V118M575 1V59M575 1H633M575 59H633M575 59V118M633 1V59M633 1H690M633 59H690M633 59V118M690 1V59M690 1H747M690 59H747M690 59V118M747 1V59M747 1H805M747 59H805M747 59V118M805 1V59M805 1H862M805 59H862M805 59V118M862 1V59M862 1H919M862 59H919M862 59V118M919 1V59M919 1H977M919 59H977M919 59V118M977 1V59M977 1H1034M977 59H1034M977 59V118M1034 1V59M1034 1H1092M1034 59H1092M1034 59V118M1092 1V59M1092 1H1149M1092 59H1149M1092 59V118M1149 1V59M1149 1H1206M1149 59H1206M1149 59V118M1206 1V59M1206 1H1264M1206 59H1264M1206 59V118M1264 1V59M1264 1H1321M1264 59H1321M1264 59V118M1321 1V59M1321 1H1379M1321 59H1379M1321 59V118M1379 1V59M1379 1H1436M1379 59H1436M1379 59V118M1436 1V59M1436 1H1494M1436 59V118M1436 59H1494M173 118H116M173 118H231M173 118V176M116 118V176M116 118H58M231 118H288M231 118V176M288 118H346M288 118V176M346 118H403M346 118V176M403 118H460M403 118V176M460 118H518M460 118V176M518 118H575M518 118V176M575 118H633M575 118V176M633 118H690M633 118V176M690 118H747M690 118V176M747 118H805M747 118V176M805 118H862M805 118V176M862 118H919M862 118V176M919 118H977M919 118V176M977 118H1034M977 118V176M1034 118H1092M1034 118V176M1092 118H1149M1092 118V176M1149 118H1206M1149 118V176M1206 118H1264M1206 118V176M1264 118H1321M1264 118V176M1321 118H1379M1321 118V176M1379 118H1436M1379 118V176M1436 118V176M1436 118H1494M173 176H116M173 176H231M173 176V234M116 176V234M116 176H58M231 176H288M231 176V234M288 176H346M288 176V234M346 176H403M346 176V234M403 176H460M403 176V234M460 176H518M460 176V234M518 176H575M518 176V234M575 176H633M575 176V234M633 176H690M633 176V234M690 176H747M690 176V234M747 176H805M747 176V234M805 176H862M805 176V234M862 176H919M862 176V234M919 176H977M919 176V234M977 176H1034M977 176V234M1034 176H1092M1034 176V234M1092 176H1149M1092 176V234M1149 176H1206M1149 176V234M1206 176H1264M1206 176V234M1264 176H1321M1264 176V234M1321 176H1379M1321 176V234M1379 176H1436M1379 176V234M1436 176V234M1436 176H1494M173 234H116M173 234H231M173 234V293M116 234V293M116 234H58M231 234H288M231 234V293M288 234H346M288 234V293M346 234H403M346 234V293M403 234H460M403 234V293M460 234H518M460 234V293M518 234H575M518 234V293M575 234H633M575 234V293M633 234H690M633 234V293M690 234H747M690 234V293M747 234H805M747 234V293M805 234H862M805 234V293M862 234H919M862 234V293M919 234H977M919 234V293M977 234H1034M977 234V293M1034 234H1092M1034 234V293M1092 234H1149M1092 234V293M1149 234H1206M1149 234V293M1206 234H1264M1206 234V293M1264 234H1321M1264 234V293M1321 234H1379M1321 234V293M1379 234H1436M1379 234V293M1436 234V293M1436 234H1494M173 293H116M173 293H231M173 293V351M116 293V351M116 293H58M231 293H288M231 293V351M288 293H346M288 293V351M346 293H403M346 293V351M403 293H460M403 293V351M460 293H518M460 293V351M518 293H575M518 293V351M575 293H633M575 293V351M633 293H690M633 293V351M690 293H747M690 293V351M747 293H805M747 293V351M805 293H862M805 293V351M862 293H919M862 293V351M919 293H977M919 293V351M977 293H1034M977 293V351M1034 293H1092M1034 293V351M1092 293H1149M1092 293V351M1149 293H1206M1149 293V351M1206 293H1264M1206 293V351M1264 293H1321M1264 293V351M1321 293H1379M1321 293V351M1379 293H1436M1379 293V351M1436 293V351M1436 293H1494M173 351H116M173 351H231M173 351V409M116 351V409M116 351H58M231 351H288M231 351V409M288 351H346M288 351V409M346 351H403M346 351V409M403 351H460M403 351V409M460 351H518M460 351V409M518 351H575M518 351V409M575 351H633M575 351V409M633 351H690M633 351V409M690 351H747M690 351V409M747 351H805M747 351V409M805 351H862M805 351V409M862 351H919M862 351V409M919 351H977M919 351V409M977 351H1034M977 351V409M1034 351H1092M1034 351V409M1092 351H1149M1092 351V409M1149 351H1206M1149 351V409M1206 351H1264M1206 351V409M1264 351H1321M1264 351V409M1321 351H1379M1321 351V409M1379 351H1436M1379 351V409M1436 351V409M1436 351H1494M173 409H116M173 409H231M173 409V468M116 409V468M116 409H58M231 409H288M231 409V468M288 409H346M288 409V468M346 409H403M346 409V468M403 409H460M403 409V468M460 409H518M460 409V468M518 409H575M518 409V468M575 409H633M575 409V468M633 409H690M633 409V468M690 409H747M690 409V468M747 409H805M747 409V468M805 409H862M805 409V468M862 409H919M862 409V468M919 409H977M919 409V468M977 409H1034M977 409V468M1034 409H1092M1034 409V468M1092 409H1149M1092 409V468M1149 409H1206M1149 409V468M1206 409H1264M1206 409V468M1264 409H1321M1264 409V468M1321 409H1379M1321 409V468M1379 409H1436M1379 409V468M1436 409V468M1436 409H1494M173 468H116M173 468H231M173 468V526M116 468V526M116 468H58M231 468H288M231 468V526M288 468H346M288 468V526M346 468H403M346 468V526M403 468H460M403 468V526M460 468H518M460 468V526M518 468H575M518 468V526M575 468H633M575 468V526M633 468H690M633 468V526M690 468H747M690 468V526M747 468H805M747 468V526M805 468H862M805 468V526M862 468H919M862 468V526M919 468H977M919 468V526M977 468H1034M977 468V526M1034 468H1092M1034 468V526M1092 468H1149M1092 468V526M1149 468H1206M1149 468V526M1206 468H1264M1206 468V526M1264 468H1321M1264 468V526M1321 468H1379M1321 468V526M1379 468H1436M1379 468V526M1436 468V526M1436 468H1494M173 526H116M173 526H231M173 526V584M116 526V584M116 526H58M231 526H288M231 526V584M288 526H346M288 526V584M346 526H403M346 526V584M403 526H460M403 526V584M460 526H518M460 526V584M518 526H575M518 526V584M575 526H633M575 526V584M633 526H690M633 526V584M690 526H747M690 526V584M747 526H805M747 526V584M805 526H862M805 526V584M862 526H919M862 526V584M919 526H977M919 526V584M977 526H1034M977 526V584M1034 526H1092M1034 526V584M1092 526H1149M1092 526V584M1149 526H1206M1149 526V584M1206 526H1264M1206 526V584M1264 526H1321M1264 526V584M1321 526H1379M1321 526V584M1379 526H1436M1379 526V584M1436 526V584M1436 526H1494M173 584H116M173 584H231M173 584V643M116 584V643M116 584H58M231 584H288M231 584V643M288 584H346M288 584V643M346 584H403M346 584V643M403 584H460M403 584V643M460 584H518M460 584V643M518 584H575M518 584V643M575 584H633M575 584V643M633 584H690M633 584V643M690 584H747M690 584V643M747 584H805M747 584V643M805 584H862M805 584V643M862 584H919M862 584V643M919 584H977M919 584V643M977 584H1034M977 584V643M1034 584H1092M1034 584V643M1092 584H1149M1092 584V643M1149 584H1206M1149 584V643M1206 584H1264M1206 584V643M1264 584H1321M1264 584V643M1321 584H1379M1321 584V643M1379 584H1436M1379 584V643M1436 584V643M1436 584H1494M173 643H116M173 643H231M173 643V701M116 643V701M116 643H58M231 643H288M231 643V701M288 643H346M288 643V701M346 643H403M346 643V701M403 643H460M403 643V701M460 643H518M460 643V701M518 643H575M518 643V701M575 643H633M575 643V701M633 643H690M633 643V701M690 643H747M690 643V701M747 643H805M747 643V701M805 643H862M805 643V701M862 643H919M862 643V701M919 643H977M919 643V701M977 643H1034M977 643V701M1034 643H1092M1034 643V701M1092 643H1149M1092 643V701M1149 643H1206M1149 643V701M1206 643H1264M1206 643V701M1264 643H1321M1264 643V701M1321 643H1379M1321 643V701M1379 643H1436M1379 643V701M1436 643V701M1436 643H1494M173 701H116M173 701H231M116 701H58M231 701H288M288 701H346M346 701H403M403 701H460M460 701H518M518 701H575M575 701H633M633 701H690M690 701H747M747 701H805M805 701H862M862 701H919M919 701H977M977 701H1034M1034 701H1092M1092 701H1149M1149 701H1206M1206 701H1264M1264 701H1321M1321 701H1379M1379 701H1436M1436 701H1494M1494 1V59M1494 1H1551V59M1494 59H1551M1494 59V118M1551 59V118M1494 118H1551M1494 118V176M1551 118V176M1494 176H1551M1494 176V234M1551 176V234M1494 234H1551M1494 234V293M1551 234V293M1494 293H1551M1494 293V351M1551 293V351M1494 351H1551M1494 351V409M1551 351V409M1494 409H1551M1494 409V468M1551 409V468M1494 468H1551M1494 468V526M1551 468V526M1494 526H1551M1494 526V584M1551 526V584M1494 584H1551M1494 584V643M1551 584V643M1494 643H1551M1494 643V701M1551 643V701H1494M58 1H1V59M58 1V59M58 59H1M58 59V118M1 59V118M58 118H1M58 118V176M1 118V176M58 176H1M58 176V234M1 176V234M58 234H1M58 234V293M1 234V293M58 293H1M58 293V351M1 293V351M58 351H1M58 351V409M1 351V409M58 409H1M58 409V468M1 409V468M58 468H1M58 468V526M1 468V526M58 526H1M58 526V584M1 526V584M58 584H1M58 584V643M1 584V643M58 643H1M58 643V701M1 643V701H58" stroke="#22252B" stroke-width="2"/>
</svg>
